<svg xmlns="http://www.w3.org/2000/svg" xmlns:xlink="http://www.w3.org/1999/xlink" viewBox="0 0 188.149 188.149">
    <defs>
        <circle id="a" cx="94.075" cy="94.075" r="94.074"/>
    </defs>
    <use xlink:href="#a" overflow="visible" fill="#7ddbd4"/>
    <clipPath id="b">
        <use xlink:href="#a" overflow="visible"/>
    </clipPath>
    <g clip-path="url(#b)">
        <path d="M151.952 66.682c0 1.625-.072 3.229-.195 4.822a59.184 59.184 0 01-1.213 7.927 56.499 56.499 0 01-3.383 10.333 56.769 56.769 0 01-4.863 8.934 57.895 57.895 0 01-4.914 6.374 60.07 60.07 0 01-1.337 1.45 54.576 54.576 0 01-4.698 4.421c-.422.36-.843.71-1.275 1.049a56.19 56.19 0 01-6.477 4.472 57.159 57.159 0 01-21.098 7.475 57.87 57.87 0 01-16.707.02 57.648 57.648 0 01-19.113-6.281 62.961 62.961 0 01-2.817-1.625 57.106 57.106 0 01-7.855-5.788 17.752 17.752 0 01-.802-.709 57.307 57.307 0 01-5.161-5.315c-.298-.35-.596-.699-.884-1.059a58.197 58.197 0 01-6.343-9.592c-.175-.329-.339-.658-.504-.987a58.269 58.269 0 01-3.527-8.729 58.451 58.451 0 01-.524-1.82 56.49 56.49 0 01-1.789-9.674c-.051-.555-.103-1.11-.144-1.676a65.293 65.293 0 01-.134-4.021c0-.812.021-1.614.052-2.416.01-.401.031-.791.062-1.192.154-2.622.493-5.203.997-7.721a56.046 56.046 0 012.057-7.578c.236-.699.493-1.398.761-2.077a55.875 55.875 0 012.807-6.128 55.554 55.554 0 012.714-4.585 53.345 53.345 0 011.974-2.827 50.021 50.021 0 012.365-2.961 54.724 54.724 0 014.585-4.792 46.352 46.352 0 011.686-1.521 56.084 56.084 0 016.909-5.13 47.726 47.726 0 012.508-1.501 54.785 54.785 0 013.794-1.964 57.937 57.937 0 019.942-3.609 54.582 54.582 0 013.948-.873 57.642 57.642 0 016.148-.823 53.546 53.546 0 013.177-.154c.463-.01.925-.02 1.398-.02a58.1 58.1 0 015.387.247c2.91.268 5.747.751 8.503 1.44.638.154 1.265.319 1.892.494a57.632 57.632 0 0111.423 4.606 54.374 54.374 0 014.369 2.581c.247.165.504.329.751.494a56.661 56.661 0 015.665 4.37 48.15 48.15 0 013.413 3.229 55.15 55.15 0 014.761 5.521c.298.38.586.761.852 1.151a56.769 56.769 0 013.918 6.241c.216.391.421.792.616 1.182a57.381 57.381 0 014.514 11.896 56.286 56.286 0 011.265 6.477c.36 2.596.544 5.249.544 7.942z"
              fill="#141720"/>
        <path d="M58.639 105.803c0 .051 0 .103-.01.154a5.06 5.06 0 01-2.622 4.308 3.307 3.307 0 01-.607.288 4.92 4.92 0 01-1.871.36 5.107 5.107 0 01-5.1-5.11c0-.483.072-.956.195-1.408.124-.432.309-.843.535-1.213a5.085 5.085 0 015.696-2.303 4.735 4.735 0 011.769.863c.442.339.822.74 1.141 1.203a5.05 5.05 0 01.874 2.858zM44.646 50.767a5.03 5.03 0 01-.782 2.694 5.07 5.07 0 01-4.328 2.406 5.078 5.078 0 01-2.231-.514 5.209 5.209 0 01-1.018-.648 5.1 5.1 0 01-1.851-3.938 5.107 5.107 0 015.1-5.11c.195 0 .391.011.586.042a5.064 5.064 0 014.452 4.256c.051.267.072.534.072.812zM73.249 16.664a5.102 5.102 0 01-5.1 5.109 5.095 5.095 0 01-4.986-4.02 4.867 4.867 0 01.051-2.385 5.1 5.1 0 014.935-3.804 5.13 5.13 0 011.552.237 5.145 5.145 0 012.201 1.408 5.086 5.086 0 011.347 3.455z"
              fill="#141720"/>
        <circle cx="121.308" cy="18.853" r="5.104" fill="#141720"/>
        <path d="M43.597 67.68c0 .648-.124 1.275-.35 1.84a5.108 5.108 0 01-6.775 2.859 5.665 5.665 0 01-1.172-.709 5.114 5.114 0 01.278-8.184c.226-.154.473-.298.73-.411a4.982 4.982 0 012.18-.494 5.095 5.095 0 014.75 3.229c.236.574.359 1.211.359 1.87z"
              fill="#141720"/>
        <circle cx="133.152" cy="107.931" r="5.104" fill="#141720"/>
        <circle cx="138.402" cy="101.993" r="5.104" fill="#141720"/>
        <circle cx="126.407" cy="112.201" r="5.104" fill="#141720"/>
        <path d="M99.579 10.135a5.084 5.084 0 01-2.581 4.432 5.053 5.053 0 01-2.529.678c-.134 0-.257 0-.391-.021a4.944 4.944 0 01-2.663-1.007 5.082 5.082 0 01-2.046-4.082c0-.401.041-.781.134-1.151a4.999 4.999 0 011.912-2.92 4.928 4.928 0 012.663-1.007c.134-.021.257-.021.391-.021 1.748 0 3.29.874 4.205 2.21.37.535.648 1.152.792 1.81.072.349.113.709.113 1.079z"
              fill="#141720"/>
        <circle cx="143.506" cy="35.72" r="5.104" fill="#141720"/>
        <path d="M56.007 96.889c0 .833-.134 1.624-.391 2.375a7.015 7.015 0 01-.761 1.614 7.486 7.486 0 01-4.812 3.362 6.502 6.502 0 01-1.419.154c-.041.01-.092.01-.133.01-4.154 0-7.526-3.362-7.526-7.516 0-1.224.298-2.386.813-3.403a5.89 5.89 0 01.535-.884 7.514 7.514 0 016.179-3.238c.216 0 .432.01.647.031a7.477 7.477 0 014.112 1.676 7.49 7.49 0 012.756 5.819zM70.185 108.641a7.502 7.502 0 01-5.11 7.115 6.74 6.74 0 01-1.213.298 6.63 6.63 0 01-1.203.103 7.485 7.485 0 01-7.259-5.603 5.314 5.314 0 01-.195-.997 6.75 6.75 0 01-.062-.915c0-2.077.843-3.948 2.19-5.305.144-.144.288-.278.432-.391a7.383 7.383 0 014.894-1.83 7.528 7.528 0 017.526 7.525zM52.162 42.429c0 4.154-3.362 7.526-7.516 7.526h-.072a7.483 7.483 0 01-5.212-2.18 7.139 7.139 0 01-1.388-1.871 7.5 7.5 0 013.752-10.394 7.263 7.263 0 012.92-.596c.339 0 .668.021.997.072a7.46 7.46 0 016.426 6.364c.062.349.093.709.093 1.079z"
              fill="#141720"/>
        <circle cx="113.786" cy="15.242" r="7.521" fill="#141720"/>
        <path d="M84.476 13.744c0 .966-.185 1.892-.524 2.745a7.515 7.515 0 01-7.002 4.781 7.45 7.45 0 01-4.658-1.625 7.403 7.403 0 01-2.827-5.356 4.616 4.616 0 01-.031-.545c0-.668.092-1.326.267-1.943a7.487 7.487 0 0110.487-4.833 7.363 7.363 0 013.167 2.838 7.423 7.423 0 011.121 3.938zM48.43 76.666a7.438 7.438 0 01-1.676 4.719 7.498 7.498 0 01-5.85 2.796c-.73 0-1.45-.103-2.118-.309a6.679 6.679 0 01-1.511-.627 7.507 7.507 0 01-3.886-6.58 7.44 7.44 0 011.912-4.997c.298-.36.648-.689 1.028-.966a7.414 7.414 0 014.575-1.563 7.39 7.39 0 012.344.38 7.53 7.53 0 015.182 7.147z"
              fill="#141720"/>
        <circle cx="134.066" cy="30.285" r="7.521" fill="#141720"/>
        <circle cx="145.111" cy="46.687" r="7.522" fill="#141720"/>
        <path d="M69.434 22.76a7.53 7.53 0 01-7.526 7.526 7.09 7.09 0 01-1.758-.216 7.523 7.523 0 01-5.583-5.665 7.17 7.17 0 01-.185-1.645c0-.133 0-.267.021-.401.195-3.968 3.485-7.115 7.505-7.115.442 0 .884.041 1.306.123a7.188 7.188 0 012.457.884 7.472 7.472 0 013.671 5.377c.062.372.092.742.092 1.132zM49.622 86.885c0 .884-.174 1.737-.483 2.509a6.729 6.729 0 01-6.23 4.195h-.092a6.774 6.774 0 01-1.039-.103c-3.167-.535-5.583-3.29-5.583-6.601 0-1.347.391-2.591 1.08-3.64.278-.432.607-.832.987-1.193a6.62 6.62 0 014.647-1.881c1.429 0 2.755.453 3.845 1.213a6.684 6.684 0 012.868 5.501zM55.143 35.715a6.691 6.691 0 01-3.074 5.634 6.609 6.609 0 01-3.64 1.079 6.732 6.732 0 01-5.501-2.858 6.731 6.731 0 01-1.213-3.855c0-.072 0-.134.01-.206.083-3.064 2.242-5.604 5.11-6.302a6.2 6.2 0 011.594-.196c.535 0 1.059.062 1.553.186 2.899.688 5.068 3.249 5.151 6.323.01.061.01.133.01.195z"
              fill="#141720"/>
        <circle cx="103.253" cy="12.143" r="6.71" fill="#141720"/>
        <path d="M47.679 59.496a6.654 6.654 0 01-.75 3.095 6.652 6.652 0 01-3.691 3.218 6.682 6.682 0 01-6.991-1.542 5.996 5.996 0 01-.669-.781 6.607 6.607 0 01-1.316-3.989c0-1.881.771-3.578 2.025-4.791a6.169 6.169 0 011.377-1.039 6.648 6.648 0 013.3-.874c1.039 0 2.025.236 2.899.668a6.538 6.538 0 012.406 1.923 6.639 6.639 0 011.41 4.112z"
              fill="#141720"/>
        <circle cx="149.53" cy="65.179" r="6.709" fill="#141720"/>
        <circle cx="145.111" cy="83.371" r="6.709" fill="#141720"/>
        <path d="M60.243 29.011c0 .36-.031.72-.093 1.059-.411 2.673-2.416 4.812-5.017 5.449a6.333 6.333 0 01-1.604.195 6.686 6.686 0 01-5.912-3.557 6.38 6.38 0 01-.782-2.951c-.01-.062-.01-.134-.01-.196a6.707 6.707 0 016.704-6.713c.298 0 .586.021.874.062a6.318 6.318 0 011.851.524 6.672 6.672 0 013.989 6.128z"
              fill="#141720"/>
        <circle cx="129.223" cy="23.847" r="6.71" fill="#141720"/>
        <path d="M92.804 10.135a6.655 6.655 0 01-1.388 4.082 6.662 6.662 0 01-5.315 2.632 6.47 6.47 0 01-2.149-.36 6.687 6.687 0 01-4.565-6.354c0-1.141.288-2.221.802-3.167a6.688 6.688 0 015.912-3.537 6.66 6.66 0 015.315 2.632 6.622 6.622 0 011.265 2.766c.082.422.123.854.123 1.306z"
              fill="#141720"/>
        <path d="M148.611 197.626v.011H39.536v-.011c0-15.124 6.148-28.798 16.101-38.668.37-.37.74-.73 1.121-1.09a56.833 56.833 0 014.781-3.999 50.778 50.778 0 011.563-1.121c1.08-.74 2.19-1.449 3.321-2.107.535-.319 1.08-.628 1.625-.926.01-.021.031-.021.031-.021.442-.236.874-.493 1.306-.761.329-.185.647-.38.956-.597a32.775 32.775 0 002.745-1.963v-.011a34.501 34.501 0 0012.708-22.404c.195-1.501.298-3.032.298-4.585l7.989.041 8.132.041c0 1.522.103 3.013.288 4.482a34.64 34.64 0 001.676 7.032 34.715 34.715 0 0010.949 15.412c.37.288.74.576 1.121.854 0 0 .01 0 .021.011.288.226.586.432.885.627.082.071.174.134.267.185.082.062.154.113.236.165l.093.062c.339.226.689.442 1.038.658.422.257.853.514 1.285.75a.542.542 0 01.186.093c.483.268.967.545 1.439.833.627.359 1.244.74 1.851 1.131a50.963 50.963 0 013.146 2.2h.021a54.177 54.177 0 015.87 5.079c9.908 9.871 16.026 23.504 16.026 38.597z"
              fill="#b08874"/>
        <path d="M148.611 197.626H39.536c0-15.124 6.148-28.798 16.101-38.668.37-.37.74-.73 1.121-1.09a56.833 56.833 0 014.781-3.999 50.778 50.778 0 011.563-1.121 59.35 59.35 0 013.31-2.118c.535-.318 1.08-.627 1.625-.925.021-.021.041-.011.041-.011v-.01a36.43 36.43 0 002.57-1.563c.391-.257.771-.524 1.151-.812.041-.02.072-.052.113-.072.277-.206.555-.422.833-.647l.309-.247h.01a30.641 30.641 0 002.098 1.953c0 .011 0 .011.01.011a29.391 29.391 0 005.984 3.907 29.251 29.251 0 0012.882 3.002h.083c8.225 0 15.659-3.394 21.004-8.832l.011-.01.01-.011c.381.318.771.617 1.173.915.267.206.545.401.833.597.082.062.174.123.267.185.082.062.154.113.236.165l.093.062c.339.226.689.442 1.038.658.422.257.853.503 1.285.74.072.021.124.062.186.092.483.268.977.545 1.449.833.628.37 1.244.751 1.841 1.142a50.79 50.79 0 013.146 2.189h.021a54.388 54.388 0 015.87 5.09c9.909 9.869 16.027 23.502 16.027 38.595z"
              fill="#efc7a1"/>
        <path d="M121.704 150.609l-.01.011-1.121 1.141c-7.053 7.186-16.46 11.135-26.495 11.146h-.021c-10.148-.021-19.545-3.989-26.567-11.166l-1.069-1.1-.01-.011c.535-.318 1.08-.627 1.625-.925.021-.021.041-.011.041-.011v-.01c.442-.247.874-.494 1.306-.751.318-.195.637-.391.956-.597l.309-.216c.391-.257.781-.524 1.151-.812.041-.02.072-.052.113-.072.277-.216.565-.432.833-.647l.309-.247.02.02h.01v.011a26.445 26.445 0 002.077 1.922c0 .011 0 .011.01.011a28.977 28.977 0 005.984 3.907 29.251 29.251 0 0012.882 3.002h.083c8.225 0 15.659-3.394 21.004-8.832l.011-.01.01-.011c.36.298.72.586 1.101.874 0 0 .01 0 .021.011.011.01.031.02.052.03.267.206.545.401.833.597.082.062.174.123.267.185.082.062.154.113.236.165l.093.062c.339.226.689.442 1.038.658.422.257.853.503 1.285.74.072.021.124.062.186.092.482.268.975.545 1.447.833z"
              fill="#543e36"/>
        <path d="M135.934 56.412v24.51c0 2.303-.164 4.575-.473 6.806-.751 5.552-2.406 10.827-4.688 15.689a59.373 59.373 0 01-2.159 4.185c-.175.309-.35.617-.525.915a62.132 62.132 0 01-5.161 7.413 39.24 39.24 0 01-1.47 1.748c-5.274 6.056-11.402 10.672-17.283 13.293-3.526 1.563-6.981 2.417-10.096 2.417-3.095 0-6.508-.833-10.004-2.375-5.912-2.612-12.081-7.249-17.396-13.335a59.149 59.149 0 01-1.604-1.923 61.578 61.578 0 01-6.446-9.798 60.716 60.716 0 01-1.295-2.622 42.887 42.887 0 01-.709-1.594 51.99 51.99 0 01-1.008-2.478 54.42 54.42 0 01-2.365-8.194 44.533 44.533 0 01-.565-3.342 49.587 49.587 0 01-.473-6.806v-24.51h83.72z"
              fill="#b08874"/>
        <path d="M51.189 87.938a5.562 5.562 0 005.562-5.562V55.67h-5.562v32.268zM131.4 55.67h5.561v32.269a5.562 5.562 0 01-5.561-5.562V55.67z"
              fill="#141720"/>
        <circle cx="83.661" cy="57.387" r="6.71" fill="#141720"/>
        <circle cx="68.146" cy="55.868" r="6.71" fill="#141720"/>
        <circle cx="52.217" cy="58.47" r="6.71" fill="#141720"/>
        <circle cx="103.253" cy="56.661" r="6.71" fill="#141720"/>
        <circle cx="123.541" cy="56.661" r="6.71" fill="#141720"/>
        <circle cx="137.462" cy="63.018" r="6.709" fill="#141720"/>
        <circle cx="94.075" cy="57.892" r="5.104" fill="#141720"/>
        <circle cx="59.49" cy="57.387" r="5.104" fill="#141720"/>
        <circle cx="76.951" cy="57.387" r="5.104" fill="#141720"/>
        <circle cx="113.786" cy="58.992" r="5.104" fill="#141720"/>
        <circle cx="130.251" cy="58.992" r="5.104" fill="#141720"/>
        <path d="M129.303 69.095a.334.334 0 00-.288-.329c-1.419-.216-7.783-1.09-14.62-1.09-7.772 0-17.797 2.436-19.545 2.436h-1.553c-.812 0-3.423-.535-6.765-1.09-3.835-.647-8.627-1.347-12.77-1.347-5.007 0-9.768.473-12.502.802a63.243 63.243 0 00-2.118.288.333.333 0 00-.298.329l-.082 4.174a.37.37 0 00.226.339l.473.165c.699.267.638 12.841 4.391 15.987 2.231 1.851 4.215 2.91 12.563 2.91 4.843 0 7.886-1.306 10.775-5.202 2.087-2.796 3.928-9.418 3.928-9.418.565-2.725 2.591-2.941 2.919-2.961h.042c.062 0 2.354.041 2.951 2.961 0 0 1.851 6.621 3.928 9.418 2.889 3.896 5.932 5.202 10.774 5.202 8.349 0 10.333-1.059 12.563-2.91 3.753-3.146 3.691-15.72 4.391-15.987l.473-.165a.37.37 0 00.226-.339l-.082-4.173z"
              fill="#1a1a1a"/>
    </g>
    <circle cx="144.234" cy="92.913" r="7.521" clip-path="url(#b)" fill="#141720"/>
    <circle cx="151.755" cy="55.763" r="5.104" clip-path="url(#b)" fill="#141720"/>
    <circle cx="150.561" cy="74.98" r="5.104" clip-path="url(#b)" fill="#141720"/>
</svg>